<?xml version="1.0" encoding="UTF-8" standalone="no"?>
<!DOCTYPE svg PUBLIC "-//W3C//DTD SVG 1.1//EN" "http://www.w3.org/Graphics/SVG/1.1/DTD/svg11.dtd">
<svg xmlns="http://www.w3.org/2000/svg" version="1.1" viewBox="0.00 0.00 680.00 190.00">
<path fill="#1d1d1b" d="
  M 387.44 87.35
  L 381.76 87.33
  A 0.31 0.31 0.0 0 1 381.45 87.02
  L 381.46 51.25
  A 0.31 0.31 0.0 0 1 381.77 50.94
  L 387.44 50.89
  A 0.31 0.31 0.0 0 1 387.75 51.20
  L 387.75 71.83
  A 0.31 0.31 0.0 0 0 388.31 72.02
  L 395.79 62.08
  A 0.31 0.31 0.0 0 1 396.03 61.96
  L 402.93 61.95
  A 0.31 0.31 0.0 0 1 403.17 62.46
  L 394.19 73.13
  A 0.31 0.31 0.0 0 0 394.18 73.52
  L 404.39 86.85
  A 0.31 0.31 0.0 0 1 404.14 87.35
  L 396.72 87.34
  A 0.31 0.31 0.0 0 1 396.47 87.21
  L 388.31 75.29
  A 0.31 0.31 0.0 0 0 387.74 75.46
  L 387.75 87.04
  A 0.31 0.31 0.0 0 1 387.44 87.35
  Z"
/>
<rect fill="#1d1d1b" x="-3.18" y="-3.14" transform="translate(579.84,54.08) rotate(-0.6)" width="6.36" height="6.28" rx="0.67"/>
<path fill="#1d1d1b" d="
  M 98.51 123.98
  L 98.52 103.49
  A 0.28 0.27 0.0 0 0 98.24 103.22
  L 63.22 103.22
  Q 61.98 103.22 61.98 101.97
  L 61.99 88.78
  Q 61.99 87.56 63.22 87.56
  L 98.23 87.56
  A 0.29 0.29 0.0 0 0 98.52 87.27
  L 98.51 51.50
  Q 98.51 50.95 99.06 50.95
  Q 126.06 50.89 153.00 50.93
  Q 158.80 50.94 165.47 53.42
  C 180.24 58.90 190.48 70.52 194.26 86.01
  Q 194.90 88.62 195.09 96.01
  Q 195.30 103.82 191.44 112.54
  Q 182.90 131.85 162.72 138.15
  C 159.86 139.05 156.11 139.59 152.71 139.59
  Q 104.98 139.64 57.25 139.58
  Q 54.57 139.58 49.79 138.09
  C 28.44 131.44 13.90 110.10 18.12 87.64
  C 22.22 65.90 40.68 50.85 63.10 50.92
  Q 71.18 50.94 79.08 50.92
  A 1.09 1.09 0.0 0 1 80.18 52.01
  L 80.18 65.78
  Q 80.18 66.50 79.46 66.48
  Q 71.27 66.30 63.24 66.49
  Q 56.30 66.66 52.01 68.26
  C 40.01 72.75 31.90 84.56 33.19 97.96
  C 34.33 109.78 42.11 119.45 53.25 122.84
  Q 58.28 124.37 70.91 124.37
  Q 84.51 124.37 98.11 124.38
  Q 98.51 124.38 98.51 123.98
  Z
  M 150.23 103.24
  L 114.74 103.24
  A 0.52 0.52 0.0 0 0 114.22 103.76
  L 114.23 123.72
  Q 114.23 124.23 114.74 124.23
  Q 132.25 124.30 149.75 124.26
  Q 162.76 124.22 171.05 115.81
  C 186.35 100.29 179.94 73.73 158.64 67.75
  Q 153.96 66.44 141.75 66.48
  Q 128.18 66.53 114.75 66.48
  Q 114.22 66.48 114.22 67.00
  L 114.22 86.99
  Q 114.22 87.50 114.73 87.50
  L 150.23 87.50
  Q 150.71 87.50 150.71 87.98
  L 150.70 102.77
  Q 150.70 103.24 150.23 103.24
  Z"
/>
<rect fill="#1d1d1b" x="-3.17" y="-3.14" transform="translate(272.20,54.07) rotate(0.1)" width="6.34" height="6.28" rx="0.80"/>
<path fill="#1d1d1b" d="
  M 253.97 82.64
  Q 255.53 82.59 255.53 81.03
  L 255.54 74.43
  Q 255.54 73.07 254.18 73.07
  L 248.68 73.08
  A 0.41 0.40 0.0 0 1 248.27 72.68
  L 248.26 68.25
  Q 248.25 67.75 248.75 67.75
  L 261.02 67.75
  A 1.02 1.02 0.0 0 1 262.04 68.77
  L 262.04 84.98
  Q 262.04 86.12 260.94 86.42
  C 247.25 90.18 230.52 87.30 232.08 68.50
  C 233.38 52.86 247.97 50.10 260.54 53.64
  Q 260.80 53.72 260.79 54.00
  L 260.52 59.04
  Q 260.50 59.38 260.18 59.25
  C 254.56 56.97 246.55 56.14 242.09 61.29
  C 237.05 67.11 238.07 77.37 244.91 81.31
  C 247.61 82.86 250.98 82.72 253.97 82.64
  Z"
/>
<path fill="#1d1d1b" d="
  M 467.67 53.27
  A 0.35 0.35 0.0 0 1 468.02 52.92
  L 480.44 52.92
  A 16.57 15.54 -0.0 0 1 497.01 68.46
  L 497.01 71.76
  A 16.57 15.54 -0.0 0 1 480.44 87.30
  L 468.02 87.30
  A 0.35 0.35 0.0 0 1 467.67 86.95
  L 467.67 53.27
  Z
  M 474.49 58.80
  L 474.45 81.40
  A 0.58 0.58 0.0 0 0 475.03 81.98
  L 478.28 81.98
  A 11.59 11.37 0.1 0 0 489.89 70.63
  L 489.89 69.61
  A 11.59 11.37 0.1 0 0 478.32 58.22
  L 475.07 58.22
  A 0.58 0.58 0.0 0 0 474.49 58.80
  Z"
/>
<path fill="#1d1d1b" d="
  M 655.81 66.97
  L 655.81 80.04
  A 2.84 2.84 0.0 0 0 658.34 82.86
  Q 660.25 83.07 662.00 82.46
  A 0.16 0.16 0.0 0 1 662.21 82.61
  L 662.33 87.25
  Q 662.33 87.47 662.11 87.48
  C 660.21 87.60 658.44 88.10 656.63 87.90
  Q 649.63 87.15 649.59 79.51
  Q 649.56 73.24 649.47 66.99
  Q 649.46 66.51 648.98 66.51
  L 644.77 66.52
  Q 644.53 66.52 644.53 66.28
  L 644.53 62.43
  A 0.31 0.30 88.0 0 1 644.81 62.12
  L 648.84 61.89
  A 0.73 0.73 0.0 0 0 649.53 61.16
  L 649.50 57.83
  Q 649.49 56.85 650.43 56.56
  L 655.09 55.10
  Q 655.85 54.87 655.84 55.66
  L 655.79 61.34
  A 0.56 0.56 0.0 0 0 656.34 61.91
  L 661.34 61.97
  Q 661.71 61.98 661.71 62.34
  L 661.77 66.25
  A 0.27 0.27 0.0 0 1 661.50 66.53
  L 656.28 66.51
  Q 655.81 66.50 655.81 66.97
  Z"
/>
<path fill="#1d1d1b" d="
  M 302.45 80.85
  Q 302.69 80.73 302.68 80.99
  L 302.59 85.74
  A 0.43 0.42 78.4 0 1 302.34 86.13
  Q 296.56 88.75 290.24 87.57
  C 274.67 84.66 278.70 56.28 296.88 62.10
  Q 300.71 63.32 302.65 67.10
  Q 304.75 71.17 304.38 76.12
  Q 304.36 76.52 303.96 76.51
  L 287.73 76.50
  A 0.88 0.88 0.0 0 0 286.88 77.61
  Q 288.26 82.83 293.53 83.45
  Q 296.87 83.85 302.45 80.85
  Z
  M 287.34 72.39
  L 298.06 72.41
  A 0.29 0.29 0.0 0 0 298.36 72.12
  L 298.36 71.68
  A 5.55 4.99 -89.9 0 0 293.38 66.12
  L 292.06 66.12
  A 5.55 4.99 -89.9 0 0 287.06 71.66
  L 287.06 72.10
  A 0.29 0.29 0.0 0 0 287.34 72.39
  Z"
/>
<path fill="#1d1d1b" d="
  M 315.61 66.95
  L 315.20 68.34
  A 2.29 2.28 -72.7 0 0 316.67 71.15
  Q 319.26 72.01 322.00 73.00
  C 329.36 75.68 327.50 85.37 320.50 87.30
  Q 315.10 88.78 308.93 86.80
  Q 308.54 86.68 308.57 86.28
  L 308.82 82.39
  Q 308.86 81.79 309.43 81.99
  C 312.76 83.18 315.31 84.16 318.12 82.71
  C 320.07 81.69 320.41 79.93 319.24 78.19
  Q 318.96 77.79 318.51 77.62
  C 316.00 76.73 311.23 75.73 309.63 73.61
  C 306.62 69.63 308.75 64.01 313.08 62.33
  Q 318.48 60.23 325.13 62.39
  Q 325.39 62.47 325.36 62.74
  L 324.95 66.65
  Q 324.93 66.86 324.72 66.80
  Q 320.41 65.61 316.06 66.54
  Q 315.71 66.61 315.61 66.95
  Z"
/>
<path fill="#1d1d1b" d="
  M 348.23 62.79
  C 352.92 65.35 353.91 71.29 353.75 75.98
  Q 353.73 76.52 353.20 76.52
  L 336.98 76.50
  Q 336.42 76.50 336.39 77.07
  C 336.17 81.50 341.15 83.88 344.98 83.27
  Q 348.58 82.70 351.44 81.11
  A 0.48 0.48 0.0 0 1 352.15 81.55
  L 352.00 85.76
  A 0.72 0.72 0.0 0 1 351.37 86.45
  Q 349.61 86.68 349.46 87.03
  Q 343.73 88.76 338.50 87.29
  C 329.36 84.72 328.14 72.91 332.54 66.00
  C 335.67 61.08 343.56 60.23 348.23 62.79
  Z
  M 336.81 72.52
  L 347.23 72.46
  A 0.50 0.50 0.0 0 0 347.72 71.96
  L 347.72 71.59
  A 5.53 5.20 89.7 0 0 342.49 66.09
  L 341.47 66.09
  A 5.53 5.20 89.7 0 0 336.30 71.65
  L 336.30 72.02
  A 0.50 0.50 0.0 0 0 336.81 72.52
  Z"
/>
<path fill="#1d1d1b" d="
  M 363.11 85.91
  C 357.88 82.63 356.92 75.23 358.47 69.74
  C 360.76 61.67 368.78 60.28 376.13 62.17
  Q 376.44 62.25 376.41 62.57
  L 376.01 66.80
  A 0.21 0.21 0.0 0 1 375.74 66.98
  Q 366.76 64.07 364.66 71.97
  C 363.93 74.72 364.88 81.45 368.62 82.46
  Q 372.50 83.51 376.25 82.01
  A 0.23 0.22 -11.3 0 1 376.56 82.21
  L 376.69 87.01
  Q 376.69 87.31 376.39 87.35
  C 371.71 87.83 367.74 88.81 363.11 85.91
  Z"
/>
<path fill="#1d1d1b" d="
  M 412.85 81.15
  C 417.08 84.76 422.23 83.41 426.63 81.06
  Q 427.17 80.77 427.16 81.38
  L 427.13 85.36
  Q 427.13 85.98 426.55 86.23
  C 419.02 89.48 408.30 88.73 405.84 79.22
  C 400.15 57.29 431.01 54.63 428.66 76.11
  Q 428.62 76.51 428.21 76.51
  L 412.00 76.51
  Q 411.51 76.51 411.50 76.99
  Q 411.38 79.90 412.85 81.15
  Z
  M 411.63 72.42
  L 422.55 72.42
  A 0.22 0.22 0.0 0 0 422.77 72.20
  L 422.77 71.65
  A 5.57 5.14 -90.0 0 0 417.63 66.08
  L 416.55 66.08
  A 5.57 5.14 90.0 0 0 411.41 71.65
  L 411.41 72.20
  A 0.22 0.22 0.0 0 0 411.63 72.42
  Z"
/>
<path fill="#1d1d1b" d="
  M 508.25 76.50
  A 1.21 1.20 77.2 0 0 507.17 78.23
  Q 509.65 83.34 514.74 83.48
  Q 518.04 83.57 522.59 80.95
  Q 523.16 80.62 523.15 81.28
  L 523.10 85.22
  Q 523.09 86.10 522.27 86.41
  C 513.99 89.52 503.38 88.49 501.52 77.97
  C 500.11 70.04 503.08 62.38 511.96 61.48
  C 521.71 60.48 524.80 67.80 524.87 76.07
  A 0.46 0.45 -89.4 0 1 524.41 76.53
  L 508.25 76.50
  Z
  M 507.59 72.48
  L 518.49 72.48
  A 0.29 0.29 0.0 0 0 518.78 72.19
  L 518.78 71.56
  A 5.52 5.30 -90.0 0 0 513.48 66.04
  L 512.60 66.04
  A 5.52 5.30 90.0 0 0 507.30 71.56
  L 507.30 72.19
  A 0.29 0.29 0.0 0 0 507.59 72.48
  Z"
/>
<path fill="#1d1d1b" d="
  M 563.67 64.93
  Q 564.65 65.10 565.01 64.53
  Q 567.35 60.83 572.08 61.55
  Q 572.36 61.59 572.36 61.87
  L 572.40 67.63
  Q 572.40 67.93 572.11 67.84
  Q 568.92 66.82 566.15 68.53
  Q 565.75 68.77 565.56 69.19
  C 562.99 74.94 563.71 81.21 563.77 87.03
  Q 563.77 87.33 563.47 87.33
  L 557.85 87.35
  Q 557.49 87.35 557.49 86.99
  L 557.49 62.84
  Q 557.49 61.91 558.42 61.93
  L 562.26 61.98
  A 1.01 1.01 0.0 0 1 563.25 63.09
  L 563.14 64.24
  Q 563.08 64.83 563.67 64.93
  Z"
/>
<path fill="#1d1d1b" d="
  M 594.48 77.02
  C 594.50 81.60 599.42 84.01 603.49 83.26
  Q 607.17 82.58 609.99 80.81
  Q 610.28 80.64 610.28 80.97
  L 610.27 85.73
  Q 610.27 85.96 610.06 86.05
  C 598.14 91.47 585.88 85.36 588.64 70.99
  Q 589.35 67.27 591.77 64.76
  C 597.05 59.30 608.65 60.37 610.88 68.52
  Q 611.81 71.90 612.21 75.72
  A 0.72 0.71 87.1 0 1 611.50 76.51
  L 595.00 76.50
  Q 594.48 76.50 594.48 77.02
  Z
  M 594.71 72.46
  L 605.69 72.34
  A 0.20 0.20 0.0 0 0 605.89 72.14
  L 605.89 71.65
  A 5.59 5.13 89.4 0 0 600.70 66.11
  L 599.58 66.13
  A 5.59 5.13 89.4 0 0 594.51 71.77
  L 594.51 72.26
  A 0.20 0.20 0.0 0 0 594.71 72.46
  Z"
/>
<path fill="#1d1d1b" d="
  M 630.57 66.34
  C 626.51 65.96 624.04 69.27 624.05 72.99
  Q 624.08 79.64 623.97 86.46
  A 0.89 0.89 0.0 0 1 623.08 87.34
  L 618.41 87.32
  Q 617.51 87.31 617.51 86.41
  L 617.51 62.43
  Q 617.51 61.86 618.08 61.88
  L 623.11 62.11
  A 0.57 0.56 -83.8 0 1 623.64 62.78
  L 623.38 64.18
  Q 623.25 64.84 623.93 64.77
  Q 624.84 64.68 625.21 63.91
  Q 625.41 63.47 625.82 63.22
  C 630.74 60.20 637.34 60.84 639.63 65.88
  C 641.69 70.38 640.64 81.14 640.68 87.03
  Q 640.69 87.32 640.39 87.33
  L 634.60 87.36
  Q 634.32 87.36 634.32 87.08
  Q 634.38 80.26 634.34 73.01
  C 634.32 70.38 633.79 66.63 630.57 66.34
  Z"
/>
<path fill="#1d1d1b" d="
  M 540.32 79.77
  L 540.88 79.73
  A 0.29 0.29 0.0 0 0 541.13 79.53
  L 546.79 62.20
  A 0.29 0.29 0.0 0 1 547.06 62.00
  L 552.84 61.90
  A 0.29 0.29 0.0 0 1 553.11 62.29
  L 543.93 87.17
  A 0.29 0.29 0.0 0 1 543.66 87.36
  L 536.82 87.30
  A 0.29 0.29 0.0 0 1 536.55 87.11
  L 527.30 62.31
  A 0.29 0.29 0.0 0 1 527.57 61.92
  L 533.83 61.97
  A 0.29 0.29 0.0 0 1 534.11 62.17
  L 540.03 79.58
  A 0.29 0.29 0.0 0 0 540.32 79.77
  Z"
/>
<rect fill="#1d1d1b" x="-3.17" y="-12.70" transform="translate(579.85,74.67) rotate(-0.1)" width="6.34" height="25.40" rx="0.62"/>
<rect fill="#1d1d1b" x="269.00" y="62.00" width="6.34" height="25.36" rx="0.84"/>
<path fill="#1d1d1b" d="
  M 450.01 73.45
  L 460.30 73.42
  A 0.34 0.34 0.0 0 1 460.64 73.76
  L 460.66 76.10
  A 0.34 0.34 0.0 0 1 460.32 76.44
  L 450.00 76.45
  A 0.34 0.34 0.0 0 0 449.66 76.79
  L 449.72 87.04
  A 0.34 0.34 0.0 0 1 449.37 87.38
  L 447.06 87.30
  A 0.34 0.34 0.0 0 1 446.73 86.96
  L 446.74 76.76
  A 0.34 0.34 0.0 0 0 446.40 76.42
  L 436.08 76.46
  A 0.34 0.34 0.0 0 1 435.74 76.12
  L 435.75 73.75
  A 0.34 0.34 0.0 0 1 436.09 73.41
  L 446.40 73.46
  A 0.34 0.34 0.0 0 0 446.74 73.12
  L 446.73 62.84
  A 0.34 0.34 0.0 0 1 447.07 62.50
  L 449.36 62.46
  A 0.34 0.34 0.0 0 1 449.71 62.81
  L 449.67 73.11
  A 0.34 0.34 0.0 0 0 450.01 73.45
  Z"
/>
<path fill="#1d1d1b" d="
  M 516.49 106.17
  Q 514.95 109.42 515.65 113.11
  Q 515.75 113.65 516.29 113.64
  L 521.29 113.59
  Q 521.75 113.58 521.74 114.04
  L 521.67 116.46
  Q 521.65 117.07 521.04 117.07
  L 516.23 117.06
  Q 515.52 117.06 515.52 117.77
  L 515.53 136.98
  A 0.27 0.26 90.0 0 1 515.27 137.25
  L 511.72 137.25
  A 0.28 0.28 0.0 0 1 511.44 136.97
  L 511.43 117.64
  A 0.54 0.54 0.0 0 0 510.89 117.10
  L 506.44 117.04
  A 0.81 0.81 0.0 0 1 505.64 116.19
  L 505.71 114.42
  Q 505.74 113.59 506.58 113.59
  L 510.89 113.61
  Q 511.43 113.61 511.43 113.06
  C 511.42 110.63 511.17 105.45 513.40 103.74
  Q 516.90 101.05 521.56 102.06
  A 0.38 0.38 0.0 0 1 521.85 102.44
  L 521.74 105.20
  Q 521.73 105.41 521.53 105.37
  Q 519.28 104.96 517.09 105.65
  Q 516.68 105.78 516.49 106.17
  Z"
/>
<rect fill="#1d1d1b" x="-2.37" y="-2.37" transform="translate(529.11,105.80) rotate(-0.2)" width="4.74" height="4.74" rx="0.36"/>
<path fill="#1d1d1b" d="
  M 555.67 134.39
  Q 554.64 134.83 553.95 135.74
  Q 553.65 136.13 553.20 136.33
  C 538.04 143.40 532.68 120.59 543.02 114.33
  Q 547.19 111.81 552.53 114.00
  C 553.71 114.49 554.11 115.49 555.39 115.91
  A 0.44 0.44 0.0 0 0 555.97 115.49
  L 555.97 103.76
  A 0.27 0.27 0.0 0 1 556.24 103.49
  L 559.87 103.41
  A 0.33 0.33 0.0 0 1 560.20 103.74
  L 560.20 136.53
  Q 560.20 137.26 559.47 137.26
  L 556.97 137.25
  Q 556.18 137.25 556.26 136.46
  L 556.41 134.94
  A 0.54 0.53 81.3 0 0 555.67 134.39
  Z
  M 549.1955 134.4883
  A 9.14 6.94 88.9 0 0 555.9587 125.2168
  A 9.14 6.94 88.9 0 0 548.8445 116.2117
  A 9.14 6.94 88.9 0 0 542.0813 125.4832
  A 9.14 6.94 88.9 0 0 549.1955 134.4883
  Z"
/>
<rect fill="#1d1d1b" x="-2.38" y="-2.37" transform="translate(349.67,105.80) rotate(0.4)" width="4.76" height="4.74" rx="0.29"/>
<path fill="#1d1d1b" d="
  M 255.45 137.02
  C 247.63 138.26 240.08 137.83 235.27 131.51
  C 232.32 127.65 231.69 121.81 232.53 117.20
  C 234.57 106.09 246.29 102.03 256.02 105.51
  Q 256.34 105.62 256.31 105.96
  L 256.02 109.44
  A 0.25 0.25 0.0 0 1 255.67 109.65
  Q 250.61 107.30 245.07 108.71
  Q 244.63 108.82 244.31 109.15
  Q 243.97 109.51 243.44 109.51
  Q 242.92 109.51 242.51 109.82
  Q 235.93 114.76 236.82 122.49
  C 237.95 132.29 246.56 135.78 255.37 132.67
  Q 256.14 132.40 256.19 133.22
  L 256.34 135.91
  A 1.06 1.06 0.0 0 1 255.45 137.02
  Z"
/>
<path fill="#1d1d1b" d="
  M 431.58 135.14
  C 431.02 134.73 430.36 134.65 429.80 134.17
  C 422.16 127.66 421.88 114.44 429.90 108.03
  C 434.44 104.40 442.30 102.89 448.05 105.64
  Q 448.30 105.76 448.26 106.02
  L 447.79 109.50
  Q 447.75 109.80 447.48 109.66
  Q 444.26 108.05 440.47 108.19
  C 426.35 108.70 424.44 129.10 437.00 133.31
  Q 441.32 134.76 447.29 132.71
  Q 448.04 132.45 448.09 133.24
  L 448.27 135.87
  A 1.10 1.09 83.0 0 1 447.37 137.03
  C 442.33 137.94 435.78 138.26 431.58 135.14
  Z"
/>
<path fill="#1d1d1b" d="
  M 330.71 117.14
  L 326.41 116.97
  Q 325.51 116.94 325.53 116.04
  L 325.57 114.28
  A 0.67 0.66 -89.5 0 1 326.22 113.63
  L 330.75 113.59
  Q 331.32 113.58 331.29 113.00
  L 331.07 108.46
  A 0.45 0.44 80.1 0 1 331.38 108.01
  L 334.94 106.86
  Q 335.20 106.78 335.20 107.05
  L 335.21 113.05
  A 0.58 0.58 0.0 0 0 335.80 113.63
  L 341.04 113.58
  Q 341.50 113.58 341.50 114.04
  L 341.50 116.53
  Q 341.50 117.05 340.97 117.05
  L 335.63 117.08
  A 0.47 0.47 0.0 0 0 335.16 117.56
  C 335.21 122.42 334.84 127.60 335.62 132.42
  Q 335.71 132.94 336.11 133.28
  Q 338.40 135.24 341.33 134.05
  Q 341.78 133.86 341.90 134.33
  Q 342.26 135.68 341.58 136.91
  Q 341.35 137.32 340.88 137.38
  C 336.10 137.99 331.32 137.62 331.32 131.50
  Q 331.31 124.58 331.21 117.66
  Q 331.21 117.16 330.71 117.14
  Z"
/>
<path fill="#1d1d1b" d="
  M 274.41 116.87
  C 270.15 115.49 267.22 118.55 266.19 122.35
  C 265.07 126.48 265.68 132.69 265.75 136.97
  Q 265.75 137.25 265.46 137.25
  L 261.78 137.24
  Q 261.57 137.24 261.57 137.03
  L 261.56 114.01
  Q 261.56 113.57 261.99 113.58
  L 265.23 113.60
  Q 265.60 113.61 265.56 113.98
  L 265.43 115.27
  Q 265.38 115.81 265.90 115.95
  Q 266.16 116.03 266.46 115.94
  Q 266.72 115.87 267.00 115.54
  Q 269.94 112.20 274.46 113.36
  A 0.37 0.36 -83.0 0 1 274.73 113.72
  L 274.67 116.69
  Q 274.66 116.95 274.41 116.87
  Z"
/>
<path fill="#1d1d1b" d="
  M 281.11 115.35
  Q 286.87 111.38 292.36 113.97
  C 296.92 116.12 298.25 121.05 298.27 125.77
  Q 298.27 126.30 297.74 126.30
  L 282.02 126.29
  A 0.78 0.78 0.0 0 0 281.25 127.22
  Q 282.77 135.01 290.77 134.41
  Q 292.69 134.26 296.15 132.32
  A 0.18 0.18 0.0 0 1 296.42 132.48
  L 296.37 135.95
  Q 296.36 136.25 296.07 136.37
  C 289.01 139.06 279.78 138.19 277.47 129.52
  C 276.21 124.84 276.86 118.29 281.11 115.35
  Z
  M 281.69 123.40
  L 293.59 123.34
  A 0.24 0.24 0.0 0 0 293.83 123.10
  L 293.82 122.60
  A 6.32 6.03 89.7 0 0 287.76 116.31
  L 287.44 116.31
  A 6.32 6.03 89.7 0 0 281.44 122.66
  L 281.45 123.16
  A 0.24 0.24 0.0 0 0 281.69 123.40
  Z"
/>
<path fill="#1d1d1b" d="
  M 318.20 135.09
  Q 317.06 135.29 316.40 136.19
  A 1.08 1.06 -83.6 0 1 315.93 136.57
  C 311.65 138.47 304.45 138.32 303.02 132.58
  C 300.77 123.53 311.30 122.14 317.74 122.82
  Q 318.22 122.87 318.28 122.39
  Q 318.85 117.68 314.74 116.56
  Q 310.05 115.28 305.82 118.57
  A 0.17 0.16 -20.6 0 1 305.55 118.45
  L 305.46 115.49
  A 0.42 0.41 -15.0 0 1 305.67 115.13
  Q 310.74 112.17 316.31 113.37
  C 321.20 114.42 322.32 117.89 322.39 122.69
  Q 322.50 129.78 322.51 136.56
  Q 322.51 137.24 321.83 137.24
  L 319.47 137.24
  Q 318.69 137.24 318.77 136.47
  L 318.86 135.70
  Q 318.94 134.96 318.20 135.09
  Z
  M 307.39 129.43
  C 305.41 136.76 320.15 136.32 318.32 126.35
  A 0.68 0.66 -0.5 0 0 317.75 125.80
  Q 312.42 124.99 307.83 127.69
  A 0.17 0.16 80.1 0 0 307.74 127.82
  Q 307.62 128.58 307.39 129.43
  Z"
/>
<path fill="#1d1d1b" d="
  M 364.53 122.36
  L 364.44 136.78
  Q 364.44 137.25 363.97 137.25
  L 360.67 137.25
  Q 360.33 137.26 360.33 136.92
  L 360.32 114.27
  Q 360.32 113.60 360.98 113.60
  L 363.73 113.60
  Q 364.37 113.60 364.33 114.23
  L 364.25 115.43
  Q 364.21 116.10 364.88 115.99
  Q 365.81 115.83 366.42 115.12
  Q 366.74 114.76 367.16 114.52
  C 373.60 110.94 380.32 113.85 380.84 121.52
  Q 381.34 129.07 380.94 136.54
  A 0.74 0.73 1.2 0 1 380.20 137.24
  L 377.49 137.24
  Q 376.77 137.24 376.78 136.52
  Q 376.86 130.16 376.75 123.24
  C 376.70 119.73 375.75 116.53 371.69 116.35
  Q 368.13 116.19 365.81 119.36
  Q 365.52 119.75 365.45 120.22
  Q 365.31 121.07 364.81 121.64
  Q 364.54 121.95 364.53 122.36
  Z"
/>
<path fill="#1d1d1b" d="
  M 404.33 134.95
  C 402.79 135.08 401.59 136.18 400.47 136.55
  C 382.00 142.59 382.59 107.23 401.62 113.87
  Q 402.88 114.31 403.91 115.47
  Q 404.29 115.91 404.63 115.96
  Q 404.90 116.00 405.11 115.91
  Q 405.56 115.72 405.51 115.24
  L 405.41 114.12
  A 0.48 0.48 0.0 0 1 405.89 113.59
  L 408.77 113.62
  Q 409.19 113.62 409.20 114.05
  Q 409.37 124.82 409.18 135.57
  Q 409.09 140.49 407.80 142.67
  C 404.21 148.70 394.82 148.13 389.14 145.96
  A 0.72 0.70 14.1 0 1 388.68 145.21
  L 389.00 142.71
  Q 389.09 142.00 389.73 142.31
  C 396.51 145.62 405.62 145.15 404.93 135.46
  A 0.55 0.55 0.0 0 0 404.33 134.95
  Z
  M 398.1141 133.8699
  A 8.76 6.89 90.3 0 0 405.0499 125.1461
  A 8.76 6.89 90.3 0 0 398.2059 116.3501
  A 8.76 6.89 90.3 0 0 391.2701 125.0739
  A 8.76 6.89 90.3 0 0 398.1141 133.8699
  Z"
/>
<path fill="#1d1d1b" d="
  M 475.1449 126.6991
  A 10.69 10.69 0.0 0 1 464.4923 137.4263
  L 462.4323 137.4335
  A 10.69 10.69 0.0 0 1 451.7051 126.7809
  L 451.6951 123.9209
  A 10.69 10.69 0.0 0 1 462.3477 113.1937
  L 464.4077 113.1865
  A 10.69 10.69 0.0 0 1 475.1349 123.8391
  L 475.1449 126.6991
  Z
  M 463.3668 134.4598
  A 9.05 7.49 90.4 0 0 470.9198 125.4623
  A 9.05 7.49 90.4 0 0 463.4932 116.3602
  A 9.05 7.49 90.4 0 0 455.9402 125.3577
  A 9.05 7.49 90.4 0 0 463.3668 134.4598
  Z"
/>
<path fill="#1d1d1b" d="
  M 494.38 116.55
  Q 485.89 115.38 485.47 124.52
  Q 485.18 130.84 485.33 136.93
  A 0.32 0.31 -0.9 0 1 485.01 137.25
  L 481.51 137.26
  A 0.25 0.25 0.0 0 1 481.26 137.01
  L 481.26 114.05
  Q 481.26 113.61 481.70 113.60
  L 484.68 113.59
  Q 485.28 113.59 485.24 114.18
  L 485.17 115.31
  A 0.60 0.60 0.0 0 0 485.90 115.93
  C 487.16 115.66 487.74 114.66 488.61 114.22
  C 494.49 111.24 500.96 113.81 501.79 120.75
  Q 502.35 125.44 501.92 136.58
  A 0.71 0.71 0.0 0 1 501.21 137.26
  L 498.41 137.24
  Q 497.73 137.24 497.73 136.56
  C 497.76 131.49 498.43 124.67 497.23 119.63
  Q 497.10 119.08 496.73 118.67
  L 495.22 116.99
  Q 494.88 116.62 494.38 116.55
  Z"
/>
<path fill="#1d1d1b" d="
  M 570.61 127.05
  C 571.91 134.73 579.47 136.32 585.50 132.18
  A 0.15 0.15 0.0 0 1 585.73 132.30
  L 585.75 135.98
  Q 585.75 136.26 585.49 136.36
  C 580.75 138.16 574.27 138.44 570.33 135.10
  C 564.44 130.12 564.85 118.48 571.89 114.47
  Q 575.64 112.32 580.49 113.49
  C 586.17 114.86 587.67 120.78 587.67 125.86
  Q 587.67 126.29 587.24 126.29
  L 571.24 126.30
  A 0.65 0.64 -5.3 0 0 570.61 127.05
  Z
  M 571.52 123.39
  L 582.68 123.33
  A 0.40 0.40 0.0 0 0 583.08 122.93
  L 583.07 122.25
  A 5.94 5.67 89.7 0 0 577.37 116.34
  L 576.75 116.34
  A 5.94 5.67 89.7 0 0 571.11 122.31
  L 571.12 122.99
  A 0.40 0.40 0.0 0 0 571.52 123.39
  Z"
/>
<path fill="#1d1d1b" d="
  M 598.05 115.54
  A 0.55 0.54 -20.7 0 0 598.96 115.95
  Q 602.56 112.74 606.90 113.09
  C 612.68 113.55 614.56 117.67 614.61 123.01
  Q 614.67 130.08 614.65 136.90
  Q 614.65 137.25 614.30 137.25
  L 610.79 137.23
  Q 610.52 137.23 610.53 136.96
  Q 610.64 129.75 610.51 122.26
  C 610.36 113.34 599.20 115.07 598.33 123.21
  Q 598.01 126.20 598.26 136.27
  Q 598.29 137.24 597.33 137.24
  L 594.97 137.26
  A 1.04 1.04 0.0 0 1 593.92 136.22
  L 593.91 114.24
  Q 593.91 113.65 594.50 113.64
  L 597.45 113.59
  A 0.61 0.61 0.0 0 1 598.07 114.21
  L 598.05 115.54
  Z"
/>
<path fill="#1d1d1b" d="
  M 636.97 117.24
  C 620.26 110.89 620.90 140.43 637.15 133.36
  Q 637.41 133.24 637.43 133.53
  L 637.62 136.56
  Q 637.64 136.84 637.37 136.92
  Q 631.70 138.55 627.33 136.63
  C 621.46 134.05 618.95 126.91 621.04 120.93
  C 623.51 113.85 630.39 111.67 637.24 113.89
  Q 637.50 113.97 637.47 114.25
  L 637.16 117.12
  Q 637.14 117.31 636.97 117.24
  Z"
/>
<path fill="#1d1d1b" d="
  M 660.51 132.30
  Q 660.80 132.13 660.80 132.47
  L 660.75 135.97
  Q 660.75 136.22 660.52 136.30
  C 649.26 140.65 639.27 134.98 641.62 122.04
  Q 642.87 115.11 649.49 113.42
  Q 654.35 112.17 658.01 114.63
  C 661.56 117.02 662.65 121.74 662.61 125.88
  Q 662.61 126.29 662.20 126.29
  L 646.22 126.30
  A 0.66 0.65 -4.5 0 0 645.57 127.05
  Q 646.46 132.77 652.05 134.41
  Q 655.23 135.34 660.51 132.30
  Z
  M 647.03 118.59
  L 646.77 118.52
  Q 646.52 118.45 646.57 118.71
  Q 646.78 119.69 646.11 120.43
  Q 645.80 120.78 645.74 121.24
  L 645.51 122.97
  Q 645.44 123.49 645.96 123.49
  L 657.98 123.48
  Q 658.42 123.48 658.41 123.05
  Q 658.39 120.08 656.61 118.01
  C 654.74 115.83 651.94 116.03 649.37 116.61
  Q 648.97 116.70 648.74 117.05
  Q 648.14 118.00 647.28 118.55
  Q 647.17 118.63 647.03 118.59
  Z"
/>
<rect fill="#1d1d1b" x="347.53" y="113.58" width="4.16" height="23.66" rx="0.26"/>
<rect fill="#1d1d1b" x="-2.08" y="-11.82" transform="translate(529.15,125.42) rotate(0.3)" width="4.16" height="23.64" rx="0.45"/>
</svg>
